# xmcd
#
# Track frame offsets: 
#        150
#        13206
#        23273
#        31877
#        43265
#        52346
#        65225
#        74716
#        86452
#        98422
#        108625
#
# Disc length: 1578 seconds
#
# Revision: 0
# Processed by: cddbd v1.5.2PL0 Copyright (c) Steve Scherf et al.
# Submitted via: ExactAudioCopy v0.99pb4
#
DISCID=9706280b
DTITLE=Spankox - Elvis  Re: Versions
DYEAR=2008
DGENRE=Electronic
TTITLE0=Baby Let's Play House (Highpass Radio Edit)
TTITLE1=Don't Be Cruel (Highpass Radio Edit)
TTITLE2=(Let Me Be Your) Teddy Bear (Highpass Album Cut)
TTITLE3=Jailhouse Rock (Highpass Radio Edit)
TTITLE4=All Shook Up (Highpass Album Cut)
TTITLE5=Blue Moon Of Kentucky (Highpass Album Cut)
TTITLE6=Heartbreak Hotel (Ago Radio Edit)
TTITLE7=Too Much (Highpass Album Cut)
TTITLE8=Just Because (Eyes Cream 3AM Short Mix)
TTITLE9=You're A Heartbreaker (Highpass Edit)
TTITLE10=That's All Right (X-Treme Edit)
EXTD=
EXTT0=
EXTT1=
EXTT2=
EXTT3=
EXTT4=
EXTT5=
EXTT6=
EXTT7=
EXTT8=
EXTT9=
EXTT10=
PLAYORDER=
